<svg xmlns="http://www.w3.org/2000/svg" viewBox="0 0 717.55 539.51"><defs><style>.cls-1{isolation:isolate;}.cls-2{fill:#6acff6;}.cls-3{fill:#d7f0fc;}.cls-4{fill:#ebebec;}.cls-5{fill:#c7c8ca;}.cls-6{fill:#667983;mix-blend-mode:multiply;opacity:0.5;}.cls-7{fill:#fff;}.cls-8{fill:#808285;}.cls-9{fill:#737577;}.cls-10{fill:#e2e3e4;}.cls-11{fill:#c0c2c4;}.cls-12{fill:#cdcfd0;}.cls-13{fill:#95979a;}.cls-14{fill:#dedfe0;}</style></defs><g class="cls-1"><g id="Capa_1" data-name="Capa 1"><rect class="cls-2" width="716" height="539.51"/><path class="cls-3" d="M267.34,101.24c0-20.74-36.3-18.67-36.3-18.67s5.18-10.37-13.49-25.93S137.68,35.89,127.3,69.08C101.37,3.73,26.07,12.81.75,18.26V119.92H237.26C246.6,119.92,267.34,119.92,267.34,101.24Z"/><path class="cls-3" d="M188.06,386.81c0-14.57-25.51-13.12-25.51-13.12s3.64-7.28-9.48-18.22S97,340.9,89.66,364.22C71.44,318.3,18.54,324.68.75,328.51v71.42H166.92C173.48,399.93,188.06,399.93,188.06,386.81Z"/><path class="cls-3" d="M695.32,388.47c0-12.74-25.51-11.47-25.51-11.47s-3.46-22.49-16.57-32.05-42.54-13.48-57.06,4.15c-20.75-38.38-70.38-28.24-88.17-24.89v75.72H674.18C680.74,399.93,695.32,399.93,695.32,388.47Z"/><path class="cls-3" d="M717.55,57.14c-18.24,10.21-34.27,26.48-44.31,51.78-12.82-41-88.43-34.6-111.5-15.38s-16.65,32-16.65,32-44.86-2.56-44.86,23.07c0,23.07,25.63,23.07,37.17,23.07H717.55Z"/><rect class="cls-4" x="210.76" y="204.98" width="300.95" height="259.33"/><rect class="cls-5" x="231.05" y="204.98" width="260.38" height="259.33"/><path class="cls-6" d="M234.19,459.83v-150s.06,0,0,0h0v-2.32h1.31v-1.18h.81c.28,0,.51-.13.51-.29v-.37c0-.32-.83-.44-1.11-.44h-1.52v-7.35h1.51V297h.47a.47.47,0,0,0,.51-.41v-.49c0-.22-.21-.37-.45-.47,1.31,0,4.53-.39,4.56-4.28h.64v-4.7h.74a1.28,1.28,0,0,1,.59-1.05c.39-.19.26-.91.21-1.11h.46v-.06h64.7v.06h.52c-.07.23-.22.86.1,1a1.47,1.47,0,0,1,.82,1.14H310v4.7h1.34a4.14,4.14,0,0,0,3.88,4.19c-.36.07-.76.21-.76.53v.52a.46.46,0,0,0,.51.41h.56v.91h1.74v7.35H316c-.28,0-1.2.07-1.2.42V306c0,.16.23.29.51.29h.75v1.18h1.22V459.83h36.78v-150s.06,0,0,0h0v-2.32h1.31v-1.18h.8c.29,0,.52-.13.52-.29v-.37c0-.32-.83-.44-1.11-.44h-1.52v-7.35h1.5V297H356a.47.47,0,0,0,.52-.41v-.49c0-.22-.21-.37-.45-.47,1.31,0,4.52-.39,4.56-4.28h.64v-4.7H362a1.31,1.31,0,0,1,.59-1.05c.4-.19.26-.91.21-1.11h.46v-.06h66v.06h.53c-.07.23-.23.86.09,1a1.42,1.42,0,0,1,.82,1.14h.44v4.7h1.34a4.15,4.15,0,0,0,3.89,4.19c-.36.07-.77.21-.77.53v.52a.47.47,0,0,0,.51.41h.56v.91h1.75v7.35h-1.28c-.29,0-1.21.07-1.21.42V306c0,.16.23.29.51.29h.75v1.18h1.23V459.83h36.77v-150s.06,0,0,0h0v-2.32h1.31v-1.18h.81c.28,0,.51-.13.51-.29v-.37c0-.32-.83-.44-1.11-.44h-1.52v-7.35h1.51V297h.47a.47.47,0,0,0,.51-.41v-.49c0-.22-.2-.37-.45-.47,1.31,0,4.53-.39,4.56-4.28h.64v-4.7h.74a1.28,1.28,0,0,1,.59-1.05c.39-.19.26-.91.21-1.11h.46v-.06h27.27V219.07h-301V459.83Z"/><rect class="cls-7" x="146.54" y="460.17" width="431.99" height="9.33"/><rect class="cls-8" x="146.49" y="467.99" width="432.09" height="9.06"/><rect class="cls-8" x="133.4" y="476.89" width="458.48" height="9.06"/><rect class="cls-8" x="117.49" y="484.9" width="490.08" height="9.37"/><rect class="cls-7" x="133.18" y="469.22" width="458.71" height="9.33"/><rect class="cls-7" x="117.36" y="479.95" width="490.34" height="9.33"/><rect class="cls-7" x="100.98" y="491.26" width="523.11" height="9.33"/><rect class="cls-8" x="100.92" y="499.08" width="523.23" height="9.06"/><rect class="cls-8" x="85.08" y="507.98" width="555.18" height="9.06"/><rect class="cls-7" x="84.8" y="500.31" width="555.46" height="9.33"/><rect class="cls-7" x="65.65" y="511.05" width="593.77" height="9.33"/><rect class="cls-7" x="161.3" y="232.63" width="36.44" height="214.1"/><path class="cls-9" d="M197.77,435.45v-.84l0-189.9c-.12,0,.18-.07,0-.07a1,1,0,0,0-.35.07V435.58a1,1,0,0,0,.35.07C198,435.65,197.66,435.46,197.77,435.45Z"/><path class="cls-9" d="M196.63,434.13V245.39a2,2,0,0,1,.87-.69v-1.78H162V446.47H197.5V434.82A2,2,0,0,1,196.63,434.13Zm-32.94,0h0c0,.21-.23.72-.75.72a.66.66,0,0,1-.64-.66h0V245.84s0-.74.68-.74.81.8.81.8Zm3.09,0h-.1l.1,0s-.24.82-1.51.82-1.26-.76-1.26-.76h0V245.39s0-.76,1.33-.76,1.56.82,1.56.82Zm4.55,0a3.25,3.25,0,0,1-2.52.82,2.22,2.22,0,0,1-1.53-.76l0,0V245.39a2.4,2.4,0,0,1,1.62-.76,3.49,3.49,0,0,1,2.64.82l-.19,188.64Zm5.43,0v0a4.39,4.39,0,0,1-3.05.82,2.87,2.87,0,0,1-1.86-.76V245.39a3.09,3.09,0,0,1,1.95-.76c2.35,0,3.19.82,3.19.82Zm5.63,0s-.82.82-3.1.82a3,3,0,0,1-1.9-.76l-.07,0V245.39a3.2,3.2,0,0,1,2-.76c2.41,0,3.28.82,3.28.82l-.23,188.64Zm5.4,0a4.09,4.09,0,0,1-2.93.82,2.7,2.7,0,0,1-1.79-.77V245.39a2.91,2.91,0,0,1,1.87-.76c2.26,0,3.07.82,3.07.82l-.21,188.64Zm4.66-.05,0,0a3.23,3.23,0,0,1-2.52.83,2.22,2.22,0,0,1-1.54-.77h0V245.39a2.37,2.37,0,0,1,1.62-.76,3.53,3.53,0,0,1,2.67.82Zm3.75.05a2.22,2.22,0,0,1-1.93.82,1.65,1.65,0,0,1-1.17-.77V245.39a1.71,1.71,0,0,1,1.22-.76,2.34,2.34,0,0,1,2,.82l-.14,188.64Z"/><path class="cls-7" d="M161.41,232.63v214.1h36.44V232.63Zm1.74,201.67h0c0,.21-.23.72-.75.72a.67.67,0,0,1-.65-.65h0V245.31s0-.75.67-.75.81.81.81.81Zm3.09,0h-.11l.1,0s-.23.82-1.5.82-1.27-.76-1.27-.76h0V244.86s0-.77,1.32-.77,1.57.83,1.57.83Zm4.54,0a3.19,3.19,0,0,1-2.51.83,2.19,2.19,0,0,1-1.53-.77l0,0V244.86a2.35,2.35,0,0,1,1.61-.77,3.46,3.46,0,0,1,2.64.83l-.18,189.38Zm5.44,0,0,0s-.8.83-3,.83a2.89,2.89,0,0,1-1.86-.77V244.86a3.07,3.07,0,0,1,2-.77c2.35,0,3.2.83,3.2.83Zm5.63,0s-.82.83-3.11.83a3,3,0,0,1-1.89-.77l-.07,0V244.86a3.18,3.18,0,0,1,2-.77c2.41,0,3.27.83,3.27.83l-.22,189.38Zm5.4,0a4.14,4.14,0,0,1-2.94.82,2.75,2.75,0,0,1-1.79-.76V244.86a2.9,2.9,0,0,1,1.87-.77c2.25,0,3.06.83,3.06.83l-.21,189.38Zm4.65-.05,0,0a3.21,3.21,0,0,1-2.52.83,2.21,2.21,0,0,1-1.53-.77h0V244.86a2.4,2.4,0,0,1,1.63-.77,3.53,3.53,0,0,1,2.67.83Zm3.75.05a2.21,2.21,0,0,1-1.92.82,1.64,1.64,0,0,1-1.17-.76V244.86a1.71,1.71,0,0,1,1.22-.77,2.33,2.33,0,0,1,2,.83l-.14,189.38Zm2,.7v0c-.12,0-.22,0-.34,0a1.71,1.71,0,0,1-1.22-.76V244.86a1.71,1.71,0,0,1,1.22-.77l.35,0Z"/><path class="cls-10" d="M155.4,452.94s-.5-4.84,4.95-4.78,39,0,39,0,5.45-.69,5.07,4.84l-.07,1.25-48.22-.51Z"/><rect class="cls-11" x="159.56" y="445.86" width="39.77" height="1.79"/><path class="cls-7" d="M200.31,447.17a.47.47,0,0,0-.51-.4H159a.47.47,0,0,0-.51.4v.52c0,.48.92.58,1.2.58H199.2c.28,0,1.11-.17,1.11-.61Z"/><rect class="cls-7" x="154.07" y="452.41" width="50.96" height="4.95"/><path class="cls-11" d="M152.75,459.37s-.33-.91.06-1.11a1.48,1.48,0,0,0,.82-1.14h52.13a1.27,1.27,0,0,0,.59,1c.45.23.19,1.18.19,1.18S152.78,459.43,152.75,459.37Z"/><rect class="cls-11" x="160.08" y="436.23" width="39.06" height="1.17"/><path class="cls-10" d="M200.45,437.7c0-.17-.23-.3-.51-.3H159.33c-.28,0-.5.13-.5.3v.38c0,.35.91.43,1.19.43h39.32c.28,0,1.11-.13,1.11-.45Z"/><rect class="cls-10" x="152.2" y="459.28" width="54.81" height="0.83"/><path class="cls-10" d="M155.41,225.6s-.5,4.84,5,4.79,39,0,39,0,5.45.68,5.07-4.84l-.06-1.26-48.23.52Z"/><rect class="cls-11" x="159.57" y="230.9" width="39.77" height="1.79"/><path class="cls-7" d="M200.32,231.37a.47.47,0,0,1-.51.41H159a.46.46,0,0,1-.51-.41v-.52c0-.48.91-.58,1.2-.58h39.5c.29,0,1.11.17,1.11.61Z"/><rect class="cls-7" x="154.08" y="221.18" width="50.96" height="4.95"/><path class="cls-11" d="M152.76,219.17s-.33.92.07,1.11a1.47,1.47,0,0,1,.81,1.15h52.13a1.31,1.31,0,0,1,.59-1.05c.45-.23.19-1.17.19-1.17S152.79,219.11,152.76,219.17Z"/><rect class="cls-11" x="160.09" y="241.14" width="39.06" height="1.17"/><path class="cls-10" d="M200.46,240.84c0,.17-.23.3-.51.3h-40.6c-.28,0-.51-.13-.51-.3v-.38c0-.35.91-.43,1.19-.43h39.33c.28,0,1.1.13,1.1.45Z"/><rect class="cls-10" x="152.21" y="218.43" width="54.81" height="0.83"/><rect class="cls-7" x="161.3" y="232.63" width="36.44" height="214.1"/><path class="cls-9" d="M197.77,435.45v-.84l0-189.9c-.12,0,.18-.07,0-.07a1,1,0,0,0-.35.07V435.58a1,1,0,0,0,.35.07C198,435.65,197.66,435.46,197.77,435.45Z"/><path class="cls-9" d="M196.63,434.13V245.39a2,2,0,0,1,.87-.69v-1.78H162V446.47H197.5V434.82A2,2,0,0,1,196.63,434.13Zm-32.94,0h0c0,.21-.23.72-.75.72a.66.66,0,0,1-.64-.66h0V245.84s0-.74.68-.74.81.8.81.8Zm3.09,0h-.1l.1,0s-.24.82-1.51.82-1.26-.76-1.26-.76h0V245.39s0-.76,1.33-.76,1.56.82,1.56.82Zm4.55,0a3.25,3.25,0,0,1-2.52.82,2.22,2.22,0,0,1-1.53-.76l0,0V245.39a2.4,2.4,0,0,1,1.62-.76,3.49,3.49,0,0,1,2.64.82l-.19,188.64Zm5.43,0v0a4.39,4.39,0,0,1-3.05.82,2.87,2.87,0,0,1-1.86-.76V245.39a3.09,3.09,0,0,1,1.95-.76c2.35,0,3.19.82,3.19.82Zm5.63,0s-.82.82-3.1.82a3,3,0,0,1-1.9-.76l-.07,0V245.39a3.2,3.2,0,0,1,2-.76c2.41,0,3.28.82,3.28.82l-.23,188.64Zm5.4,0a4.09,4.09,0,0,1-2.93.82,2.7,2.7,0,0,1-1.79-.77V245.39a2.91,2.91,0,0,1,1.87-.76c2.26,0,3.07.82,3.07.82l-.21,188.64Zm4.66-.05,0,0a3.23,3.23,0,0,1-2.52.83,2.22,2.22,0,0,1-1.54-.77h0V245.39a2.37,2.37,0,0,1,1.62-.76,3.53,3.53,0,0,1,2.67.82Zm3.75.05a2.22,2.22,0,0,1-1.93.82,1.65,1.65,0,0,1-1.17-.77V245.39a1.71,1.71,0,0,1,1.22-.76,2.34,2.34,0,0,1,2,.82l-.14,188.64Z"/><path class="cls-7" d="M161.41,232.63v214.1h36.44V232.63Zm1.74,201.67h0c0,.21-.23.72-.75.72a.67.67,0,0,1-.65-.65h0V245.31s0-.75.67-.75.81.81.81.81Zm3.09,0h-.11l.1,0s-.23.82-1.5.82-1.27-.76-1.27-.76h0V244.86s0-.77,1.32-.77,1.57.83,1.57.83Zm4.54,0a3.19,3.19,0,0,1-2.51.83,2.19,2.19,0,0,1-1.53-.77l0,0V244.86a2.35,2.35,0,0,1,1.61-.77,3.46,3.46,0,0,1,2.64.83l-.18,189.38Zm5.44,0,0,0s-.8.83-3,.83a2.89,2.89,0,0,1-1.86-.77V244.86a3.07,3.07,0,0,1,2-.77c2.35,0,3.2.83,3.2.83Zm5.63,0s-.82.83-3.11.83a3,3,0,0,1-1.89-.77l-.07,0V244.86a3.18,3.18,0,0,1,2-.77c2.41,0,3.27.83,3.27.83l-.22,189.38Zm5.4,0a4.14,4.14,0,0,1-2.94.82,2.75,2.75,0,0,1-1.79-.76V244.86a2.9,2.9,0,0,1,1.87-.77c2.25,0,3.06.83,3.06.83l-.21,189.38Zm4.65-.05,0,0a3.21,3.21,0,0,1-2.52.83,2.21,2.21,0,0,1-1.53-.77h0V244.86a2.4,2.4,0,0,1,1.63-.77,3.53,3.53,0,0,1,2.67.83Zm3.75.05a2.21,2.21,0,0,1-1.92.82,1.64,1.64,0,0,1-1.17-.76V244.86a1.71,1.71,0,0,1,1.22-.77,2.33,2.33,0,0,1,2,.83l-.14,189.38Zm2,.7v0c-.12,0-.22,0-.34,0a1.71,1.71,0,0,1-1.22-.76V244.86a1.71,1.71,0,0,1,1.22-.77l.35,0Z"/><path class="cls-10" d="M155.4,452.94s-.5-4.84,4.95-4.78,39,0,39,0,5.45-.69,5.07,4.84l-.07,1.25-48.22-.51Z"/><rect class="cls-11" x="159.56" y="445.86" width="39.77" height="1.79"/><path class="cls-7" d="M200.31,447.17a.47.47,0,0,0-.51-.4H159a.47.47,0,0,0-.51.4v.52c0,.48.92.58,1.2.58H199.2c.28,0,1.11-.17,1.11-.61Z"/><rect class="cls-7" x="154.07" y="452.41" width="50.96" height="4.95"/><path class="cls-11" d="M152.75,459.37s-.33-.91.06-1.11a1.48,1.48,0,0,0,.82-1.14h52.13a1.27,1.27,0,0,0,.59,1c.45.23.19,1.18.19,1.18S152.78,459.43,152.75,459.37Z"/><rect class="cls-11" x="160.08" y="436.23" width="39.06" height="1.17"/><path class="cls-10" d="M200.45,437.7c0-.17-.23-.3-.51-.3H159.33c-.28,0-.5.13-.5.3v.38c0,.35.91.43,1.19.43h39.32c.28,0,1.11-.13,1.11-.45Z"/><rect class="cls-10" x="152.2" y="459.28" width="54.81" height="0.83"/><path class="cls-10" d="M155.41,225.6s-.5,4.84,5,4.79,39,0,39,0,5.45.68,5.07-4.84l-.06-1.26-48.23.52Z"/><rect class="cls-11" x="159.57" y="230.9" width="39.77" height="1.79"/><path class="cls-7" d="M200.32,231.37a.47.47,0,0,1-.51.41H159a.46.46,0,0,1-.51-.41v-.52c0-.48.91-.58,1.2-.58h39.5c.29,0,1.11.17,1.11.61Z"/><rect class="cls-7" x="154.08" y="221.18" width="50.96" height="4.95"/><path class="cls-11" d="M152.76,219.17s-.33.92.07,1.11a1.47,1.47,0,0,1,.81,1.15h52.13a1.31,1.31,0,0,1,.59-1.05c.45-.23.19-1.17.19-1.17S152.79,219.11,152.76,219.17Z"/><rect class="cls-11" x="160.09" y="241.14" width="39.06" height="1.17"/><path class="cls-10" d="M200.46,240.84c0,.17-.23.3-.51.3h-40.6c-.28,0-.51-.13-.51-.3v-.38c0-.35.91-.43,1.19-.43h39.33c.28,0,1.1.13,1.1.45Z"/><rect class="cls-10" x="152.21" y="218.43" width="54.81" height="0.83"/><rect class="cls-7" x="525.63" y="232.63" width="36.43" height="214.1"/><path class="cls-9" d="M562.1,435.45v-.84l0-189.9c-.11,0,.18-.07.06-.07a1.1,1.1,0,0,0-.36.07V435.58a1.1,1.1,0,0,0,.36.07C562.31,435.65,562,435.46,562.1,435.45Z"/><path class="cls-9" d="M561,434.13V245.39a2,2,0,0,1,.86-.69v-1.78H526.28V446.47h35.54V434.82A2,2,0,0,1,561,434.13Zm-32.94,0h0c0,.21-.23.72-.75.72a.67.67,0,0,1-.65-.66h0V245.84s0-.74.69-.74.8.8.8.8Zm3.08,0H531l.1,0s-.23.82-1.5.82-1.27-.76-1.27-.76h0V245.39s0-.76,1.32-.76,1.57.82,1.57.82Zm4.55,0a3.21,3.21,0,0,1-2.51.82,2.19,2.19,0,0,1-1.53-.76l0,0V245.39a2.36,2.36,0,0,1,1.61-.76,3.49,3.49,0,0,1,2.64.82l-.18,188.64Zm5.44,0,0,0s-.8.82-3.05.82a2.9,2.9,0,0,1-1.86-.76V245.39a3.09,3.09,0,0,1,2-.76c2.35,0,3.2.82,3.2.82Zm5.63,0s-.82.82-3.11.82a3,3,0,0,1-1.89-.76l-.07,0V245.39a3.19,3.19,0,0,1,2-.76c2.42,0,3.28.82,3.28.82l-.22,188.64Zm5.4,0a4.14,4.14,0,0,1-2.94.82,2.7,2.7,0,0,1-1.79-.77V245.39a2.91,2.91,0,0,1,1.87-.76c2.25,0,3.06.82,3.06.82l-.21,188.64Zm4.65-.05v0a3.24,3.24,0,0,1-2.53.83,2.21,2.21,0,0,1-1.53-.77h0V245.39a2.41,2.41,0,0,1,1.63-.76,3.55,3.55,0,0,1,2.67.82Zm3.75.05a2.21,2.21,0,0,1-1.92.82,1.65,1.65,0,0,1-1.17-.77V245.39a1.71,1.71,0,0,1,1.22-.76,2.34,2.34,0,0,1,2,.82l-.14,188.64Z"/><path class="cls-7" d="M525.74,232.63v214.1h36.43V232.63Zm1.73,201.67h0c-.05.21-.23.72-.75.72a.65.65,0,0,1-.64-.65h0V245.31s0-.75.68-.75.81.81.81.81Zm3.09,0h-.1l.1,0s-.24.82-1.51.82-1.26-.76-1.26-.76h0V244.86s0-.77,1.33-.77,1.56.83,1.56.83Zm4.55,0a3.22,3.22,0,0,1-2.51.83,2.22,2.22,0,0,1-1.54-.77l0,0V244.86a2.39,2.39,0,0,1,1.62-.77,3.46,3.46,0,0,1,2.64.83L535.1,434.3Zm5.43,0,0,0s-.8.83-3,.83a2.85,2.85,0,0,1-1.86-.77V244.86a3.07,3.07,0,0,1,2-.77c2.35,0,3.19.83,3.19.83Zm5.63,0s-.82.83-3.1.83a3,3,0,0,1-1.9-.77l-.07,0V244.86a3.18,3.18,0,0,1,2-.77c2.41,0,3.28.83,3.28.83l-.23,189.38Zm5.4,0a4.09,4.09,0,0,1-2.93.82,2.71,2.71,0,0,1-1.79-.76V244.86a2.85,2.85,0,0,1,1.86-.77c2.26,0,3.07.83,3.07.83l-.21,189.38Zm4.66-.05,0,0a3.23,3.23,0,0,1-2.52.83,2.22,2.22,0,0,1-1.54-.77h0V244.86a2.37,2.37,0,0,1,1.63-.77,3.49,3.49,0,0,1,2.66.83Zm3.75.05a2.21,2.21,0,0,1-1.92.82,1.65,1.65,0,0,1-1.18-.76V244.86a1.71,1.71,0,0,1,1.22-.77,2.33,2.33,0,0,1,2,.83L560,434.3Zm2,.7v0c-.11,0-.21,0-.33,0a1.72,1.72,0,0,1-1.23-.76V244.86a1.72,1.72,0,0,1,1.23-.77l.34,0Z"/><path class="cls-10" d="M519.73,452.94s-.51-4.84,4.94-4.78,39,0,39,0,5.45-.69,5.07,4.84l-.06,1.25-48.22-.51Z"/><rect class="cls-11" x="523.89" y="445.86" width="39.77" height="1.79"/><path class="cls-7" d="M564.64,447.17a.47.47,0,0,0-.51-.4h-40.8a.47.47,0,0,0-.51.4v.52c0,.48.92.58,1.2.58h39.51c.28,0,1.11-.17,1.11-.61Z"/><rect class="cls-7" x="518.39" y="452.41" width="50.96" height="4.95"/><path class="cls-11" d="M517.07,459.37s-.32-.91.07-1.11a1.5,1.5,0,0,0,.82-1.14h52.12a1.3,1.3,0,0,0,.59,1c.46.23.2,1.18.2,1.18S517.11,459.43,517.07,459.37Z"/><rect class="cls-11" x="524.4" y="436.23" width="39.06" height="1.17"/><path class="cls-10" d="M564.77,437.7c0-.17-.23-.3-.51-.3h-40.6c-.28,0-.51.13-.51.3v.38c0,.35.92.43,1.2.43h39.32c.28,0,1.1-.13,1.1-.45Z"/><rect class="cls-10" x="516.52" y="459.28" width="54.81" height="0.83"/><path class="cls-10" d="M519.74,225.6s-.51,4.84,4.94,4.79,39,0,39,0,5.46.68,5.07-4.84l-.06-1.26-48.22.52Z"/><rect class="cls-11" x="523.9" y="230.9" width="39.77" height="1.79"/><path class="cls-7" d="M564.65,231.37a.47.47,0,0,1-.51.41h-40.8a.47.47,0,0,1-.51-.41v-.52c0-.48.92-.58,1.2-.58h39.51c.28,0,1.11.17,1.11.61Z"/><rect class="cls-7" x="518.4" y="221.18" width="50.96" height="4.95"/><path class="cls-11" d="M517.09,219.17s-.33.92.06,1.11a1.5,1.5,0,0,1,.82,1.15H570.1a1.29,1.29,0,0,1,.58-1.05c.46-.23.2-1.17.2-1.17S517.12,219.11,517.09,219.17Z"/><rect class="cls-11" x="524.41" y="241.14" width="39.06" height="1.17"/><path class="cls-10" d="M564.78,240.84c0,.17-.22.3-.51.3h-40.6c-.28,0-.51-.13-.51-.3v-.38c0-.35.92-.43,1.2-.43h39.32c.28,0,1.1.13,1.1.45Z"/><rect class="cls-10" x="516.54" y="218.43" width="54.81" height="0.83"/><rect class="cls-7" x="525.63" y="232.63" width="36.43" height="214.1"/><path class="cls-9" d="M562.1,435.45v-.84l0-189.9c-.11,0,.18-.07.06-.07a1.1,1.1,0,0,0-.36.07V435.58a1.1,1.1,0,0,0,.36.07C562.31,435.65,562,435.46,562.1,435.45Z"/><path class="cls-9" d="M561,434.13V245.39a2,2,0,0,1,.86-.69v-1.78H526.28V446.47h35.54V434.82A2,2,0,0,1,561,434.13Zm-32.94,0h0c0,.21-.23.72-.75.72a.67.67,0,0,1-.65-.66h0V245.84s0-.74.69-.74.8.8.8.8Zm3.08,0H531l.1,0s-.23.82-1.5.82-1.27-.76-1.27-.76h0V245.39s0-.76,1.32-.76,1.57.82,1.57.82Zm4.55,0a3.21,3.21,0,0,1-2.51.82,2.19,2.19,0,0,1-1.53-.76l0,0V245.39a2.36,2.36,0,0,1,1.61-.76,3.49,3.49,0,0,1,2.64.82l-.18,188.64Zm5.44,0,0,0s-.8.82-3.05.82a2.9,2.9,0,0,1-1.86-.76V245.39a3.09,3.09,0,0,1,2-.76c2.35,0,3.2.82,3.2.82Zm5.63,0s-.82.82-3.11.82a3,3,0,0,1-1.89-.76l-.07,0V245.39a3.19,3.19,0,0,1,2-.76c2.42,0,3.28.82,3.28.82l-.22,188.64Zm5.4,0a4.14,4.14,0,0,1-2.94.82,2.7,2.7,0,0,1-1.79-.77V245.39a2.91,2.91,0,0,1,1.87-.76c2.25,0,3.06.82,3.06.82l-.21,188.64Zm4.65-.05v0a3.24,3.24,0,0,1-2.53.83,2.21,2.21,0,0,1-1.53-.77h0V245.39a2.41,2.41,0,0,1,1.63-.76,3.55,3.55,0,0,1,2.67.82Zm3.75.05a2.21,2.21,0,0,1-1.92.82,1.65,1.65,0,0,1-1.17-.77V245.39a1.71,1.71,0,0,1,1.22-.76,2.34,2.34,0,0,1,2,.82l-.14,188.64Z"/><path class="cls-7" d="M525.74,232.63v214.1h36.43V232.63Zm1.73,201.67h0c-.05.21-.23.72-.75.72a.65.65,0,0,1-.64-.65h0V245.31s0-.75.68-.75.81.81.81.81Zm3.09,0h-.1l.1,0s-.24.82-1.51.82-1.26-.76-1.26-.76h0V244.86s0-.77,1.33-.77,1.56.83,1.56.83Zm4.55,0a3.22,3.22,0,0,1-2.51.83,2.22,2.22,0,0,1-1.54-.77l0,0V244.86a2.39,2.39,0,0,1,1.62-.77,3.46,3.46,0,0,1,2.64.83L535.1,434.3Zm5.43,0,0,0s-.8.83-3,.83a2.85,2.85,0,0,1-1.86-.77V244.86a3.07,3.07,0,0,1,2-.77c2.35,0,3.19.83,3.19.83Zm5.63,0s-.82.83-3.1.83a3,3,0,0,1-1.9-.77l-.07,0V244.86a3.18,3.18,0,0,1,2-.77c2.41,0,3.28.83,3.28.83l-.23,189.38Zm5.4,0a4.09,4.09,0,0,1-2.93.82,2.71,2.71,0,0,1-1.79-.76V244.86a2.85,2.85,0,0,1,1.86-.77c2.26,0,3.07.83,3.07.83l-.21,189.38Zm4.66-.05,0,0a3.23,3.23,0,0,1-2.52.83,2.22,2.22,0,0,1-1.54-.77h0V244.86a2.37,2.37,0,0,1,1.63-.77,3.49,3.49,0,0,1,2.66.83Zm3.75.05a2.21,2.21,0,0,1-1.92.82,1.65,1.65,0,0,1-1.18-.76V244.86a1.71,1.71,0,0,1,1.22-.77,2.33,2.33,0,0,1,2,.83L560,434.3Zm2,.7v0c-.11,0-.21,0-.33,0a1.72,1.72,0,0,1-1.23-.76V244.86a1.72,1.72,0,0,1,1.23-.77l.34,0Z"/><path class="cls-10" d="M519.73,452.94s-.51-4.84,4.94-4.78,39,0,39,0,5.45-.69,5.07,4.84l-.06,1.25-48.22-.51Z"/><rect class="cls-11" x="523.89" y="445.86" width="39.77" height="1.79"/><path class="cls-7" d="M564.64,447.17a.47.47,0,0,0-.51-.4h-40.8a.47.47,0,0,0-.51.4v.52c0,.48.92.58,1.2.58h39.51c.28,0,1.11-.17,1.11-.61Z"/><rect class="cls-7" x="518.39" y="452.41" width="50.96" height="4.95"/><path class="cls-11" d="M517.07,459.37s-.32-.91.07-1.11a1.5,1.5,0,0,0,.82-1.14h52.12a1.3,1.3,0,0,0,.59,1c.46.23.2,1.18.2,1.18S517.11,459.43,517.07,459.37Z"/><rect class="cls-11" x="524.4" y="436.23" width="39.06" height="1.17"/><path class="cls-10" d="M564.77,437.7c0-.17-.23-.3-.51-.3h-40.6c-.28,0-.51.13-.51.3v.38c0,.35.92.43,1.2.43h39.32c.28,0,1.1-.13,1.1-.45Z"/><rect class="cls-10" x="516.52" y="459.28" width="54.81" height="0.83"/><path class="cls-10" d="M519.74,225.6s-.51,4.84,4.94,4.79,39,0,39,0,5.46.68,5.07-4.84l-.06-1.26-48.22.52Z"/><rect class="cls-11" x="523.9" y="230.9" width="39.77" height="1.79"/><path class="cls-7" d="M564.65,231.37a.47.47,0,0,1-.51.41h-40.8a.47.47,0,0,1-.51-.41v-.52c0-.48.92-.58,1.2-.58h39.51c.28,0,1.11.17,1.11.61Z"/><rect class="cls-7" x="518.4" y="221.18" width="50.96" height="4.95"/><path class="cls-11" d="M517.09,219.17s-.33.92.06,1.11a1.5,1.5,0,0,1,.82,1.15H570.1a1.29,1.29,0,0,1,.58-1.05c.46-.23.2-1.17.2-1.17S517.12,219.11,517.09,219.17Z"/><rect class="cls-11" x="524.41" y="241.14" width="39.06" height="1.17"/><path class="cls-10" d="M564.78,240.84c0,.17-.22.3-.51.3h-40.6c-.28,0-.51-.13-.51-.3v-.38c0-.35.92-.43,1.2-.43h39.32c.28,0,1.1.13,1.1.45Z"/><rect class="cls-10" x="516.54" y="218.43" width="54.81" height="0.83"/><rect class="cls-12" x="153.9" y="199.68" width="414.16" height="3.78"/><path class="cls-12" d="M157.85,183.4c2.93,0,202.83-53.9,202.83-53.9l176.13,45.68,24.73,11.12L555,189.68,162.08,189Z"/><path class="cls-13" d="M550.42,171.88H531.27V145.61h-84l-86.19-25.42v0l-.05,0,0,0v0l-86.19,25.42h-79v23.62H182.05l-28.5,7.26v24.16l.4.32,0,.25H567.59v-25Zm.64,15.35H165.44a.89.89,0,0,1-.91-.57c-.08-.32.18-.64.6-.76l196-51.84a1.3,1.3,0,0,1,.62,0l189.57,51.82a.77.77,0,0,1,.71.66C552,186.93,551.57,187.23,551.06,187.23Z"/><path class="cls-7" d="M580.23,180.77,545.56,169.1V149.48l9.75-5.42h-108l-86.19-25.42v0l-.05,0,0,0v0l-86.19,25.42H176.74l9.74,5.42v17.08l-41.67,14.21L154,199.43l0,.25H568.17l0-.25Zm-29.17,4.92H165.44a.89.89,0,0,1-.91-.57c-.08-.33.18-.65.6-.76l196-51.84a1.19,1.19,0,0,1,.62,0l189.57,51.81a.77.77,0,0,1,.71.67C552,185.38,551.57,185.69,551.06,185.69Z"/><polygon class="cls-13" points="184.87 183.97 531.78 183.97 531.74 182.4 361.16 137.34 184.88 182.4 184.87 183.97"/><polygon class="cls-7" points="184.87 182.43 531.78 182.43 361.16 135.79 184.87 182.43"/><polygon class="cls-13" points="143.31 215.08 152.38 211.29 447.72 209.18 569.68 211.29 578.76 215.08 288.86 216.9 143.31 215.08"/><polygon class="cls-7" points="143.31 215.08 146.12 218.56 575.95 218.56 578.76 215.08 143.31 215.08"/><rect class="cls-7" x="152.38" y="203.26" width="417.29" height="8.04"/><rect class="cls-7" x="278.76" y="232.63" width="36.44" height="214.1"/><path class="cls-9" d="M315.23,435.45v-.84l0-189.9c-.11,0,.18-.07.05-.07a1,1,0,0,0-.35.07V435.58a1,1,0,0,0,.36.07C315.44,435.65,315.12,435.46,315.23,435.45Z"/><path class="cls-9" d="M314.09,434.13V245.39a2,2,0,0,1,.87-.69v-1.78H279.42V446.47H315V434.82A2,2,0,0,1,314.09,434.13Zm-32.94,0h0c-.05.21-.23.72-.75.72a.66.66,0,0,1-.64-.66h0V245.84s0-.74.68-.74.81.8.81.8Zm3.09,0h-.1l.1,0s-.24.82-1.51.82-1.26-.76-1.26-.76h0V245.39s0-.76,1.33-.76,1.57.82,1.57.82Zm4.55,0a3.25,3.25,0,0,1-2.52.82,2.22,2.22,0,0,1-1.53-.76l0,0V245.39a2.36,2.36,0,0,1,1.61-.76,3.49,3.49,0,0,1,2.64.82l-.18,188.64Zm5.43,0v0a4.39,4.39,0,0,1-3,.82,2.87,2.87,0,0,1-1.86-.76V245.39a3.09,3.09,0,0,1,1.95-.76c2.35,0,3.19.82,3.19.82Zm5.63,0s-.82.82-3.1.82a3,3,0,0,1-1.9-.76l-.07,0V245.39a3.2,3.2,0,0,1,2-.76c2.41,0,3.28.82,3.28.82l-.23,188.64Zm5.4,0a4.09,4.09,0,0,1-2.93.82,2.7,2.7,0,0,1-1.79-.77V245.39a2.87,2.87,0,0,1,1.86-.76c2.26,0,3.07.82,3.07.82l-.21,188.64Zm4.66-.05,0,0a3.23,3.23,0,0,1-2.52.83,2.22,2.22,0,0,1-1.54-.77h0V245.39a2.41,2.41,0,0,1,1.63-.76,3.51,3.51,0,0,1,2.66.82Zm3.75.05a2.21,2.21,0,0,1-1.92.82,1.65,1.65,0,0,1-1.18-.77V245.39a1.72,1.72,0,0,1,1.23-.76,2.33,2.33,0,0,1,2,.82l-.13,188.64Z"/><path class="cls-7" d="M278.87,232.63v214.1h36.44V232.63Zm1.74,201.67h0c0,.21-.23.72-.75.72a.67.67,0,0,1-.65-.65h0V245.31s0-.75.68-.75.8.81.8.81Zm3.09,0h-.11l.1,0s-.23.82-1.5.82-1.27-.76-1.27-.76h0V244.86s0-.77,1.32-.77,1.57.83,1.57.83Zm4.54,0a3.19,3.19,0,0,1-2.51.83,2.21,2.21,0,0,1-1.53-.77l0,0V244.86a2.35,2.35,0,0,1,1.61-.77,3.44,3.44,0,0,1,2.64.83l-.18,189.38Zm5.44,0,0,0s-.8.83-3.05.83a2.85,2.85,0,0,1-1.85-.77V244.86a3.07,3.07,0,0,1,1.95-.77c2.35,0,3.2.83,3.2.83Zm5.63,0s-.82.83-3.11.83a3,3,0,0,1-1.89-.77l-.07,0V244.86a3.18,3.18,0,0,1,2-.77c2.41,0,3.27.83,3.27.83l-.22,189.38Zm5.4,0a4.14,4.14,0,0,1-2.94.82,2.75,2.75,0,0,1-1.79-.76V244.86a2.9,2.9,0,0,1,1.87-.77c2.25,0,3.06.83,3.06.83L304.7,434.3Zm4.66-.05,0,0a3.23,3.23,0,0,1-2.52.83,2.22,2.22,0,0,1-1.54-.77h0V244.86a2.4,2.4,0,0,1,1.63-.77,3.53,3.53,0,0,1,2.67.83Zm3.74.05a2.19,2.19,0,0,1-1.92.82,1.64,1.64,0,0,1-1.17-.76V244.86a1.71,1.71,0,0,1,1.22-.77,2.33,2.33,0,0,1,2,.83l-.14,189.38Zm2,.7v0c-.12,0-.21,0-.34,0a1.71,1.71,0,0,1-1.22-.76V244.86a1.71,1.71,0,0,1,1.22-.77l.35,0Z"/><path class="cls-10" d="M272.86,452.94s-.5-4.84,4.95-4.78,39,0,39,0,5.45-.69,5.07,4.84l-.06,1.25-48.23-.51Z"/><rect class="cls-11" x="277.02" y="445.86" width="39.77" height="1.79"/><path class="cls-7" d="M317.77,447.17a.47.47,0,0,0-.51-.4h-40.8a.46.46,0,0,0-.5.4v.52c0,.48.91.58,1.2.58h39.5c.29,0,1.11-.17,1.11-.61Z"/><rect class="cls-7" x="271.53" y="452.41" width="50.96" height="4.95"/><path class="cls-11" d="M270.21,459.37s-.33-.91.06-1.11a1.46,1.46,0,0,0,.82-1.14h52.13a1.3,1.3,0,0,0,.59,1c.45.23.19,1.18.19,1.18S270.24,459.43,270.21,459.37Z"/><rect class="cls-11" x="277.54" y="436.23" width="39.06" height="1.17"/><path class="cls-10" d="M317.91,437.7c0-.17-.23-.3-.51-.3H276.8c-.28,0-.51.13-.51.3v.38c0,.35.91.43,1.19.43H316.8c.29,0,1.11-.13,1.11-.45Z"/><rect class="cls-10" x="269.66" y="459.28" width="54.81" height="0.83"/><path class="cls-10" d="M272.87,225.6s-.5,4.84,4.95,4.79,39,0,39,0,5.45.68,5.07-4.84l-.06-1.26-48.23.52Z"/><rect class="cls-11" x="277.04" y="230.9" width="39.77" height="1.79"/><path class="cls-7" d="M317.78,231.37a.47.47,0,0,1-.51.41H276.48a.47.47,0,0,1-.51-.41v-.52c0-.48.92-.58,1.2-.58h39.5c.29,0,1.11.17,1.11.61Z"/><rect class="cls-7" x="271.54" y="221.18" width="50.96" height="4.95"/><path class="cls-11" d="M270.22,219.17s-.33.92.07,1.11a1.47,1.47,0,0,1,.81,1.15h52.13a1.31,1.31,0,0,1,.59-1.05c.46-.23.19-1.17.19-1.17S270.25,219.11,270.22,219.17Z"/><rect class="cls-11" x="277.55" y="241.14" width="39.06" height="1.17"/><path class="cls-10" d="M317.92,240.84c0,.17-.23.3-.51.3h-40.6c-.28,0-.51-.13-.51-.3v-.38c0-.35.91-.43,1.19-.43h39.33c.28,0,1.1.13,1.1.45Z"/><rect class="cls-10" x="269.67" y="218.43" width="54.81" height="0.83"/><rect class="cls-7" x="278.76" y="232.63" width="36.44" height="214.1"/><path class="cls-9" d="M315.23,435.45v-.84l0-189.9c-.11,0,.18-.07.05-.07a1,1,0,0,0-.35.07V435.58a1,1,0,0,0,.36.07C315.44,435.65,315.12,435.46,315.23,435.45Z"/><path class="cls-9" d="M314.09,434.13V245.39a2,2,0,0,1,.87-.69v-1.78H279.42V446.47H315V434.82A2,2,0,0,1,314.09,434.13Zm-32.94,0h0c-.05.21-.23.72-.75.72a.66.66,0,0,1-.64-.66h0V245.84s0-.74.68-.74.81.8.81.8Zm3.09,0h-.1l.1,0s-.24.82-1.51.82-1.26-.76-1.26-.76h0V245.39s0-.76,1.33-.76,1.57.82,1.57.82Zm4.55,0a3.25,3.25,0,0,1-2.52.82,2.22,2.22,0,0,1-1.53-.76l0,0V245.39a2.36,2.36,0,0,1,1.61-.76,3.49,3.49,0,0,1,2.64.82l-.18,188.64Zm5.43,0v0a4.39,4.39,0,0,1-3,.82,2.87,2.87,0,0,1-1.86-.76V245.39a3.09,3.09,0,0,1,1.95-.76c2.35,0,3.19.82,3.19.82Zm5.63,0s-.82.82-3.1.82a3,3,0,0,1-1.9-.76l-.07,0V245.39a3.2,3.2,0,0,1,2-.76c2.41,0,3.28.82,3.28.82l-.23,188.64Zm5.4,0a4.09,4.09,0,0,1-2.93.82,2.7,2.7,0,0,1-1.79-.77V245.39a2.87,2.87,0,0,1,1.86-.76c2.26,0,3.07.82,3.07.82l-.21,188.64Zm4.66-.05,0,0a3.23,3.23,0,0,1-2.52.83,2.22,2.22,0,0,1-1.54-.77h0V245.39a2.41,2.41,0,0,1,1.63-.76,3.51,3.51,0,0,1,2.66.82Zm3.75.05a2.21,2.21,0,0,1-1.92.82,1.65,1.65,0,0,1-1.18-.77V245.39a1.72,1.72,0,0,1,1.23-.76,2.33,2.33,0,0,1,2,.82l-.13,188.64Z"/><path class="cls-7" d="M278.87,232.63v214.1h36.44V232.63Zm1.74,201.67h0c0,.21-.23.72-.75.72a.67.67,0,0,1-.65-.65h0V245.31s0-.75.68-.75.8.81.8.81Zm3.09,0h-.11l.1,0s-.23.82-1.5.82-1.27-.76-1.27-.76h0V244.86s0-.77,1.32-.77,1.57.83,1.57.83Zm4.54,0a3.19,3.19,0,0,1-2.51.83,2.21,2.21,0,0,1-1.53-.77l0,0V244.86a2.35,2.35,0,0,1,1.61-.77,3.44,3.44,0,0,1,2.64.83l-.18,189.38Zm5.44,0,0,0s-.8.83-3.05.83a2.85,2.85,0,0,1-1.85-.77V244.86a3.07,3.07,0,0,1,1.95-.77c2.35,0,3.2.83,3.2.83Zm5.63,0s-.82.83-3.11.83a3,3,0,0,1-1.89-.77l-.07,0V244.86a3.18,3.18,0,0,1,2-.77c2.41,0,3.27.83,3.27.83l-.22,189.38Zm5.4,0a4.14,4.14,0,0,1-2.94.82,2.75,2.75,0,0,1-1.79-.76V244.86a2.9,2.9,0,0,1,1.87-.77c2.25,0,3.06.83,3.06.83L304.7,434.3Zm4.66-.05,0,0a3.23,3.23,0,0,1-2.52.83,2.22,2.22,0,0,1-1.54-.77h0V244.86a2.4,2.4,0,0,1,1.63-.77,3.53,3.53,0,0,1,2.67.83Zm3.74.05a2.19,2.19,0,0,1-1.92.82,1.64,1.64,0,0,1-1.17-.76V244.86a1.71,1.71,0,0,1,1.22-.77,2.33,2.33,0,0,1,2,.83l-.14,189.38Zm2,.7v0c-.12,0-.21,0-.34,0a1.71,1.71,0,0,1-1.22-.76V244.86a1.71,1.71,0,0,1,1.22-.77l.35,0Z"/><path class="cls-10" d="M272.86,452.94s-.5-4.84,4.95-4.78,39,0,39,0,5.45-.69,5.07,4.84l-.06,1.25-48.23-.51Z"/><rect class="cls-11" x="277.02" y="445.86" width="39.77" height="1.79"/><path class="cls-7" d="M317.77,447.17a.47.47,0,0,0-.51-.4h-40.8a.46.46,0,0,0-.5.4v.52c0,.48.91.58,1.2.58h39.5c.29,0,1.11-.17,1.11-.61Z"/><rect class="cls-7" x="271.53" y="452.41" width="50.96" height="4.95"/><path class="cls-11" d="M270.21,459.37s-.33-.91.06-1.11a1.46,1.46,0,0,0,.82-1.14h52.13a1.3,1.3,0,0,0,.59,1c.45.23.19,1.18.19,1.18S270.24,459.43,270.21,459.37Z"/><rect class="cls-11" x="277.54" y="436.23" width="39.06" height="1.17"/><path class="cls-10" d="M317.91,437.7c0-.17-.23-.3-.51-.3H276.8c-.28,0-.51.13-.51.3v.38c0,.35.91.43,1.19.43H316.8c.29,0,1.11-.13,1.11-.45Z"/><rect class="cls-10" x="269.66" y="459.28" width="54.81" height="0.83"/><path class="cls-10" d="M272.87,225.6s-.5,4.84,4.95,4.79,39,0,39,0,5.45.68,5.07-4.84l-.06-1.26-48.23.52Z"/><rect class="cls-11" x="277.04" y="230.9" width="39.77" height="1.79"/><path class="cls-7" d="M317.78,231.37a.47.47,0,0,1-.51.41H276.48a.47.47,0,0,1-.51-.41v-.52c0-.48.92-.58,1.2-.58h39.5c.29,0,1.11.17,1.11.61Z"/><rect class="cls-7" x="271.54" y="221.18" width="50.96" height="4.95"/><path class="cls-11" d="M270.22,219.17s-.33.92.07,1.11a1.47,1.47,0,0,1,.81,1.15h52.13a1.31,1.31,0,0,1,.59-1.05c.46-.23.19-1.17.19-1.17S270.25,219.11,270.22,219.17Z"/><rect class="cls-11" x="277.55" y="241.14" width="39.06" height="1.17"/><path class="cls-10" d="M317.92,240.84c0,.17-.23.3-.51.3h-40.6c-.28,0-.51-.13-.51-.3v-.38c0-.35.91-.43,1.19-.43h39.33c.28,0,1.1.13,1.1.45Z"/><rect class="cls-10" x="269.67" y="218.43" width="54.81" height="0.83"/><rect class="cls-7" x="410.73" y="232.63" width="36.44" height="214.1"/><path class="cls-9" d="M447.2,435.45v-.84l0-189.9c-.11,0,.18-.07.06-.07a1,1,0,0,0-.35.07V435.58a1,1,0,0,0,.35.07C447.41,435.65,447.09,435.46,447.2,435.45Z"/><path class="cls-9" d="M446.06,434.13V245.39a2,2,0,0,1,.87-.69v-1.78H411.38V446.47h35.55V434.82A2,2,0,0,1,446.06,434.13Zm-32.94,0h0c-.05.21-.23.72-.75.72a.67.67,0,0,1-.65-.66h0V245.84s0-.74.69-.74.8.8.8.8Zm3.09,0h-.11l.1,0s-.23.82-1.5.82-1.27-.76-1.27-.76h0V245.39s0-.76,1.32-.76,1.57.82,1.57.82Zm4.54,0a3.21,3.21,0,0,1-2.51.82,2.19,2.19,0,0,1-1.53-.76l0,0V245.39a2.36,2.36,0,0,1,1.61-.76,3.46,3.46,0,0,1,2.64.82l-.18,188.64Zm5.44,0,0,0s-.8.82-3.05.82a2.86,2.86,0,0,1-1.85-.76V245.39a3.09,3.09,0,0,1,1.95-.76c2.35,0,3.2.82,3.2.82Zm5.63,0s-.82.82-3.11.82a3,3,0,0,1-1.89-.76l-.07,0V245.39a3.2,3.2,0,0,1,2-.76c2.41,0,3.27.82,3.27.82l-.22,188.64Zm5.4,0a4.14,4.14,0,0,1-2.94.82,2.73,2.73,0,0,1-1.79-.77V245.39a2.91,2.91,0,0,1,1.87-.76c2.25,0,3.06.82,3.06.82l-.21,188.64Zm4.65-.05v0a3.24,3.24,0,0,1-2.53.83,2.21,2.21,0,0,1-1.53-.77h0V245.39a2.41,2.41,0,0,1,1.63-.76,3.55,3.55,0,0,1,2.67.82Zm3.75.05a2.21,2.21,0,0,1-1.92.82,1.65,1.65,0,0,1-1.17-.77V245.39a1.71,1.71,0,0,1,1.22-.76,2.34,2.34,0,0,1,2,.82l-.14,188.64Z"/><path class="cls-7" d="M410.84,232.63v214.1h36.43V232.63Zm1.74,201.67h0c-.05.21-.23.72-.75.72a.65.65,0,0,1-.64-.65h0V245.31s0-.75.68-.75.81.81.81.81Zm3.08,0h-.1l.1,0s-.24.82-1.51.82-1.26-.76-1.26-.76h0V244.86s0-.77,1.33-.77,1.57.83,1.57.83Zm4.55,0a3.21,3.21,0,0,1-2.52.83,2.21,2.21,0,0,1-1.53-.77l0,0V244.86a2.35,2.35,0,0,1,1.61-.77,3.46,3.46,0,0,1,2.64.83L420.2,434.3Zm5.43,0v0s-.81.83-3.05.83a2.85,2.85,0,0,1-1.86-.77V244.86a3.07,3.07,0,0,1,1.95-.77c2.35,0,3.19.83,3.19.83Zm5.63,0s-.82.83-3.1.83a3,3,0,0,1-1.9-.77l-.07,0V244.86a3.18,3.18,0,0,1,2-.77c2.41,0,3.28.83,3.28.83l-.23,189.38Zm5.41,0a4.14,4.14,0,0,1-2.94.82,2.71,2.71,0,0,1-1.79-.76V244.86a2.85,2.85,0,0,1,1.86-.77c2.26,0,3.07.83,3.07.83l-.21,189.38Zm4.65-.05,0,0a3.21,3.21,0,0,1-2.52.83,2.22,2.22,0,0,1-1.54-.77h0V244.86a2.4,2.4,0,0,1,1.63-.77,3.49,3.49,0,0,1,2.66.83Zm3.75.05a2.21,2.21,0,0,1-1.92.82,1.65,1.65,0,0,1-1.18-.76V244.86a1.72,1.72,0,0,1,1.23-.77,2.32,2.32,0,0,1,2,.83l-.13,189.38Zm2,.7v0c-.11,0-.21,0-.33,0a1.74,1.74,0,0,1-1.23-.76V244.86a1.71,1.71,0,0,1,1.22-.77l.35,0Z"/><path class="cls-10" d="M404.83,452.94s-.51-4.84,4.94-4.78,39,0,39,0,5.45-.69,5.07,4.84l-.06,1.25-48.23-.51Z"/><rect class="cls-11" x="408.99" y="445.86" width="39.77" height="1.79"/><path class="cls-7" d="M449.74,447.17a.47.47,0,0,0-.51-.4h-40.8a.47.47,0,0,0-.51.4v.52c0,.48.92.58,1.2.58h39.51c.28,0,1.11-.17,1.11-.61Z"/><rect class="cls-7" x="403.49" y="452.41" width="50.96" height="4.95"/><path class="cls-11" d="M402.17,459.37s-.32-.91.07-1.11a1.5,1.5,0,0,0,.82-1.14h52.12a1.3,1.3,0,0,0,.59,1c.46.23.2,1.18.2,1.18S402.21,459.43,402.17,459.37Z"/><rect class="cls-11" x="409.5" y="436.23" width="39.06" height="1.17"/><path class="cls-10" d="M449.87,437.7c0-.17-.23-.3-.51-.3h-40.6c-.28,0-.51.13-.51.3v.38c0,.35.92.43,1.2.43h39.32c.28,0,1.1-.13,1.1-.45Z"/><rect class="cls-10" x="401.62" y="459.28" width="54.81" height="0.83"/><path class="cls-10" d="M404.84,225.6s-.51,4.84,4.94,4.79,39,0,39,0,5.45.68,5.06-4.84l-.06-1.26-48.22.52Z"/><rect class="cls-11" x="409" y="230.9" width="39.77" height="1.79"/><path class="cls-7" d="M449.75,231.37a.47.47,0,0,1-.51.41h-40.8a.47.47,0,0,1-.51-.41v-.52c0-.48.92-.58,1.2-.58h39.51c.28,0,1.11.17,1.11.61Z"/><rect class="cls-7" x="403.5" y="221.18" width="50.96" height="4.95"/><path class="cls-11" d="M402.19,219.17s-.33.92.06,1.11a1.5,1.5,0,0,1,.82,1.15H455.2a1.29,1.29,0,0,1,.58-1.05c.46-.23.2-1.17.2-1.17S402.22,219.11,402.19,219.17Z"/><rect class="cls-11" x="409.51" y="241.14" width="39.06" height="1.17"/><path class="cls-10" d="M449.88,240.84c0,.17-.23.3-.51.3h-40.6c-.28,0-.51-.13-.51-.3v-.38c0-.35.92-.43,1.2-.43h39.32c.28,0,1.1.13,1.1.45Z"/><rect class="cls-10" x="401.64" y="218.43" width="54.81" height="0.83"/><rect class="cls-7" x="410.73" y="232.63" width="36.44" height="214.1"/><path class="cls-9" d="M447.2,435.45v-.84l0-189.9c-.11,0,.18-.07.06-.07a1,1,0,0,0-.35.07V435.58a1,1,0,0,0,.35.07C447.41,435.65,447.09,435.46,447.2,435.45Z"/><path class="cls-9" d="M446.06,434.13V245.39a2,2,0,0,1,.87-.69v-1.78H411.38V446.47h35.55V434.82A2,2,0,0,1,446.06,434.13Zm-32.94,0h0c-.05.21-.23.72-.75.72a.67.67,0,0,1-.65-.66h0V245.84s0-.74.69-.74.8.8.8.8Zm3.09,0h-.11l.1,0s-.23.82-1.5.82-1.27-.76-1.27-.76h0V245.39s0-.76,1.32-.76,1.57.82,1.57.82Zm4.54,0a3.21,3.21,0,0,1-2.51.82,2.19,2.19,0,0,1-1.53-.76l0,0V245.39a2.36,2.36,0,0,1,1.61-.76,3.46,3.46,0,0,1,2.64.82l-.18,188.64Zm5.44,0,0,0s-.8.82-3.05.82a2.86,2.86,0,0,1-1.85-.76V245.39a3.09,3.09,0,0,1,1.95-.76c2.35,0,3.2.82,3.2.82Zm5.63,0s-.82.82-3.11.82a3,3,0,0,1-1.89-.76l-.07,0V245.39a3.2,3.2,0,0,1,2-.76c2.41,0,3.27.82,3.27.82l-.22,188.64Zm5.4,0a4.14,4.14,0,0,1-2.94.82,2.73,2.73,0,0,1-1.79-.77V245.39a2.91,2.91,0,0,1,1.87-.76c2.25,0,3.06.82,3.06.82l-.21,188.64Zm4.65-.05v0a3.24,3.24,0,0,1-2.53.83,2.21,2.21,0,0,1-1.53-.77h0V245.39a2.41,2.41,0,0,1,1.63-.76,3.55,3.55,0,0,1,2.67.82Zm3.75.05a2.21,2.21,0,0,1-1.92.82,1.65,1.65,0,0,1-1.17-.77V245.39a1.71,1.71,0,0,1,1.22-.76,2.34,2.34,0,0,1,2,.82l-.14,188.64Z"/><path class="cls-7" d="M410.84,232.63v214.1h36.43V232.63Zm1.74,201.67h0c-.05.21-.23.72-.75.72a.65.65,0,0,1-.64-.65h0V245.31s0-.75.68-.75.81.81.81.81Zm3.08,0h-.1l.1,0s-.24.82-1.51.82-1.26-.76-1.26-.76h0V244.86s0-.77,1.33-.77,1.57.83,1.57.83Zm4.55,0a3.21,3.21,0,0,1-2.52.83,2.21,2.21,0,0,1-1.53-.77l0,0V244.86a2.35,2.35,0,0,1,1.61-.77,3.46,3.46,0,0,1,2.64.83L420.2,434.3Zm5.43,0v0s-.81.83-3.05.83a2.85,2.85,0,0,1-1.86-.77V244.86a3.07,3.07,0,0,1,1.95-.77c2.35,0,3.19.83,3.19.83Zm5.63,0s-.82.83-3.1.83a3,3,0,0,1-1.9-.77l-.07,0V244.86a3.18,3.18,0,0,1,2-.77c2.41,0,3.28.83,3.28.83l-.23,189.38Zm5.41,0a4.14,4.14,0,0,1-2.94.82,2.71,2.71,0,0,1-1.79-.76V244.86a2.85,2.85,0,0,1,1.86-.77c2.26,0,3.07.83,3.07.83l-.21,189.38Zm4.65-.05,0,0a3.21,3.21,0,0,1-2.52.83,2.22,2.22,0,0,1-1.54-.77h0V244.86a2.4,2.4,0,0,1,1.63-.77,3.49,3.49,0,0,1,2.66.83Zm3.75.05a2.21,2.21,0,0,1-1.92.82,1.65,1.65,0,0,1-1.18-.76V244.86a1.72,1.72,0,0,1,1.23-.77,2.32,2.32,0,0,1,2,.83l-.13,189.38Zm2,.7v0c-.11,0-.21,0-.33,0a1.74,1.74,0,0,1-1.23-.76V244.86a1.71,1.71,0,0,1,1.22-.77l.35,0Z"/><path class="cls-10" d="M404.83,452.94s-.51-4.84,4.94-4.78,39,0,39,0,5.45-.69,5.07,4.84l-.06,1.25-48.23-.51Z"/><rect class="cls-11" x="408.99" y="445.86" width="39.77" height="1.79"/><path class="cls-7" d="M449.74,447.17a.47.47,0,0,0-.51-.4h-40.8a.47.47,0,0,0-.51.4v.52c0,.48.92.58,1.2.58h39.51c.28,0,1.11-.17,1.11-.61Z"/><rect class="cls-7" x="403.49" y="452.41" width="50.96" height="4.95"/><path class="cls-11" d="M402.17,459.37s-.32-.91.07-1.11a1.5,1.5,0,0,0,.82-1.14h52.12a1.3,1.3,0,0,0,.59,1c.46.23.2,1.18.2,1.18S402.21,459.43,402.17,459.37Z"/><rect class="cls-11" x="409.5" y="436.23" width="39.06" height="1.17"/><path class="cls-10" d="M449.87,437.7c0-.17-.23-.3-.51-.3h-40.6c-.28,0-.51.13-.51.3v.38c0,.35.92.43,1.2.43h39.32c.28,0,1.1-.13,1.1-.45Z"/><rect class="cls-10" x="401.62" y="459.28" width="54.81" height="0.83"/><path class="cls-10" d="M404.84,225.6s-.51,4.84,4.94,4.79,39,0,39,0,5.45.68,5.06-4.84l-.06-1.26-48.22.52Z"/><rect class="cls-11" x="409" y="230.9" width="39.77" height="1.79"/><path class="cls-7" d="M449.75,231.37a.47.47,0,0,1-.51.41h-40.8a.47.47,0,0,1-.51-.41v-.52c0-.48.92-.58,1.2-.58h39.51c.28,0,1.11.17,1.11.61Z"/><rect class="cls-7" x="403.5" y="221.18" width="50.96" height="4.95"/><path class="cls-11" d="M402.19,219.17s-.33.92.06,1.11a1.5,1.5,0,0,1,.82,1.15H455.2a1.29,1.29,0,0,1,.58-1.05c.46-.23.2-1.17.2-1.17S402.22,219.11,402.19,219.17Z"/><rect class="cls-11" x="409.51" y="241.14" width="39.06" height="1.17"/><path class="cls-10" d="M449.88,240.84c0,.17-.23.3-.51.3h-40.6c-.28,0-.51-.13-.51-.3v-.38c0-.35.92-.43,1.2-.43h39.32c.28,0,1.1.13,1.1.45Z"/><rect class="cls-10" x="401.64" y="218.43" width="54.81" height="0.83"/><polygon class="cls-14" points="184.73 166.87 276.75 143.52 175.32 143.25 185.05 149.68 184.73 166.87"/><polygon class="cls-14" points="546.5 169.3 446.32 143.66 556.25 143.94 546.36 149.93 546.5 169.3"/></g></g></svg>